<svg width="105" height="70" xmlns="http://www.w3.org/2000/svg" preserveAspectRatio="none">

 <g>
  <title>background</title>
  <rect fill="none" id="canvas_background" height="402" width="582" y="-1" x="-1"/>
 </g>
 <g>
  <title>Layer 1</title>
  <g id="svg_55">
   <path fill-opacity="0.09" d="m0,0l105,0l0,70l-105,0l0,-70z" id="svg_56"/>
   <path d="m52.5,15c-11,0 -20,9 -20,20s9,20 20,20s20,-9 20,-20s-9,-20 -20,-20zm-2,35.9c-7.9,-1 -14,-7.7 -14,-15.9c0,-1.2 0.2,-2.4 0.4,-3.6l9.6,9.6l0,2c0,2.2 1.8,4 4,4l0,3.9zm13.8,-5.1c-0.5,-1.6 -2,-2.8 -3.8,-2.8l-2,0l0,-6c0,-1.1 -0.9,-2 -2,-2l-12,0l0,-4l4,0c1.1,0 2,-0.9 2,-2l0,-4l4,0c2.2,0 4,-1.8 4,-4l0,-0.8c5.9,2.4 10,8.1 10,14.8c0,4.2 -1.6,7.9 -4.2,10.8z" fill="#fff" id="svg_57"/>
  </g>
 </g>
</svg>